<?xml version="1.0" standalone="no"?>
<!DOCTYPE svg PUBLIC "-//W3C//DTD SVG 20010904//EN"
 "http://www.w3.org/TR/2001/REC-SVG-20010904/DTD/svg10.dtd">
<svg version="1.0" xmlns="http://www.w3.org/2000/svg"
 width="700.000000pt" height="700.000000pt" viewBox="0 0 700.000000 700.000000"
 preserveAspectRatio="xMidYMid meet">
<metadata>
Created by potrace 1.14, written by Peter Selinger 2001-2017
</metadata>
<g transform="translate(0.000000,700.000000) scale(0.100000,-0.100000)"
fill="#000000" stroke="none">
<path d="M3278 6995 c-2 -1 -42 -5 -89 -9 -47 -4 -95 -8 -105 -10 -10 -2 -46
-7 -79 -12 -33 -4 -62 -8 -65 -9 -3 0 -27 -4 -55 -9 -27 -4 -106 -21 -175 -37
-69 -17 -135 -32 -147 -35 -40 -8 -263 -84 -365 -125 -242 -96 -604 -297 -768
-426 -8 -6 -51 -40 -95 -74 -354 -275 -683 -663 -902 -1064 -52 -95 -143 -280
-143 -291 0 -2 -11 -27 -24 -56 -52 -116 -142 -389 -162 -491 -2 -10 -6 -27
-9 -37 -3 -10 -8 -29 -10 -42 -3 -13 -11 -57 -20 -98 -22 -115 -30 -160 -41
-255 -26 -230 -26 -667 1 -826 2 -13 6 -46 9 -74 9 -78 22 -152 51 -285 21
-96 91 -339 114 -395 5 -11 25 -65 46 -120 50 -132 181 -398 250 -508 30 -49
55 -90 55 -93 0 -3 4 -10 10 -17 5 -7 46 -64 91 -126 174 -248 376 -465 619
-668 81 -67 304 -233 314 -233 3 0 32 -18 65 -40 33 -22 63 -40 67 -40 4 0 15
-6 23 -14 27 -23 262 -141 398 -199 277 -118 580 -203 872 -243 25 -3 57 -8
71 -10 163 -25 682 -25 842 1 13 2 46 7 73 10 72 10 86 12 120 19 17 3 44 8
60 11 111 21 303 72 435 115 183 59 583 241 657 299 14 12 32 21 39 21 8 0 14
5 14 10 0 6 4 10 9 10 16 0 212 134 323 220 156 122 330 285 458 429 36 41 70
79 76 85 65 68 263 353 352 508 47 80 182 351 182 364 0 3 8 24 19 47 53 118
147 417 177 562 17 81 54 301 59 350 4 33 9 71 11 85 9 46 11 524 4 605 -12
128 -21 202 -25 227 -3 13 -8 43 -11 68 -9 69 -70 336 -98 425 -202 665 -589
1255 -1101 1680 -33 28 -62 53 -65 56 -4 5 -154 114 -270 196 -45 32 -203 125
-305 178 -307 162 -750 309 -1055 350 -19 3 -46 7 -60 10 -13 2 -52 7 -86 11
-33 3 -74 8 -90 10 -32 5 -541 14 -546 9z"/>
</g>
</svg>
